<svg width="43" height="43" viewBox="0 0 43 43" fill="none" xmlns="http://www.w3.org/2000/svg">
<mask id="path-1-inside-1_2_16" fill="white">
<path fill-rule="evenodd" clip-rule="evenodd" d="M31.7446 29.6233C34.3993 26.4872 36 22.4305 36 18C36 8.05887 27.9411 0 18 0C8.05887 0 0 8.05887 0 18C0 27.9411 8.05887 36 18 36C22.4306 36 26.4872 34.3993 29.6233 31.7446L40.6358 42.7571L42.7571 40.6357L31.7446 29.6233Z"/>
</mask>
<path d="M31.7446 29.6233L29.4548 27.6849L27.671 29.7923L29.6233 31.7446L31.7446 29.6233ZM29.6233 31.7446L31.7446 29.6233L29.7923 27.6709L27.685 29.4548L29.6233 31.7446ZM40.6358 42.7571L38.5144 44.8784L40.6358 46.9997L42.7571 44.8784L40.6358 42.7571ZM42.7571 40.6357L44.8784 42.7571L46.9997 40.6357L44.8784 38.5144L42.7571 40.6357ZM33 18C33 21.6946 31.6681 25.0703 29.4548 27.6849L34.0343 31.5616C37.1304 27.9041 39 23.1665 39 18H33ZM18 3C26.2843 3 33 9.71573 33 18H39C39 6.40202 29.598 -3 18 -3V3ZM3 18C3 9.71573 9.71573 3 18 3V-3C6.40202 -3 -3 6.40202 -3 18H3ZM18 33C9.71573 33 3 26.2843 3 18H-3C-3 29.598 6.40202 39 18 39V33ZM27.685 29.4548C25.0703 31.6681 21.6946 33 18 33V39C23.1665 39 27.9042 37.1304 31.5616 34.0343L27.685 29.4548ZM42.7571 40.6357L31.7446 29.6233L27.5019 33.8659L38.5144 44.8784L42.7571 40.6357ZM40.6358 38.5144L38.5144 40.6357L42.7571 44.8784L44.8784 42.7571L40.6358 38.5144ZM29.6233 31.7446L40.6358 42.7571L44.8784 38.5144L33.8659 27.5019L29.6233 31.7446Z" fill="white" mask="url(#path-1-inside-1_2_16)"/>
</svg>
